<?xml version="1.0" standalone="no"?><!-- Generator: Gravit.io --><svg xmlns="http://www.w3.org/2000/svg" xmlns:xlink="http://www.w3.org/1999/xlink" style="isolation:isolate" viewBox="0 0 180 180" width="180" height="180"><defs><clipPath id="_clipPath_eXOgiq2cXbAMj81oNIzTYJx1q7OVJP6X"><rect width="180" height="180"/></clipPath></defs><g clip-path="url(#_clipPath_eXOgiq2cXbAMj81oNIzTYJx1q7OVJP6X)"><defs><filter id="M9GjVVgCEpRKa3hPUL7QjTw0bZoBKnfc" x="-200%" y="-200%" width="400%" height="400%"><feOffset xmlns="http://www.w3.org/2000/svg" in="SourceAlpha" result="offOut" dx="0" dy="0"/><feGaussianBlur xmlns="http://www.w3.org/2000/svg" in="offOut" result="blurOut" stdDeviation="2.5"/><feComponentTransfer xmlns="http://www.w3.org/2000/svg" in="blurOut" result="opacOut"><feFuncA xmlns="http://www.w3.org/2000/svg" type="table" tableValues="0 0.5"/></feComponentTransfer><feBlend xmlns="http://www.w3.org/2000/svg" in="SourceGraphic" in2="opacOut" mode="normal"/></filter></defs><g filter="url(#M9GjVVgCEpRKa3hPUL7QjTw0bZoBKnfc)"><path d=" M 107.349794 130.671191 L 126.950515 75.507485 L 137.689832 75.507485 L 106.762946 161.304653 L 96.903901 161.304653 L 66.153069 75.507485 L 76.716332 75.507485 L 96.434423 131.023299 L 96.434423 131.023299 Q 99.838141 140.588921 101.833424 149.626379 L 101.833424 149.626379 L 101.833424 149.626379 Q 103.946076 140.119442 107.349794 130.671191 L 107.349794 130.671191 L 107.349794 130.671191 Z " fill="rgb(9,9,162)"/></g><defs><filter id="3VbDR4k8EyFNZ2deKrzlDEHQ22T971lG" x="-200%" y="-200%" width="400%" height="400%"><feOffset xmlns="http://www.w3.org/2000/svg" in="SourceAlpha" result="offOut" dx="0" dy="0"/><feGaussianBlur xmlns="http://www.w3.org/2000/svg" in="offOut" result="blurOut" stdDeviation="2.5"/><feComponentTransfer xmlns="http://www.w3.org/2000/svg" in="blurOut" result="opacOut"><feFuncA xmlns="http://www.w3.org/2000/svg" type="table" tableValues="0 0.5"/></feComponentTransfer><feBlend xmlns="http://www.w3.org/2000/svg" in="SourceGraphic" in2="opacOut" mode="normal"/></filter></defs><g filter="url(#3VbDR4k8EyFNZ2deKrzlDEHQ22T971lG)"><path d=" M 92.349794 130.277857 L 111.950515 75.114151 L 122.689832 75.114151 L 91.762946 160.911319 L 81.903901 160.911319 L 51.153069 75.114151 L 61.716332 75.114151 L 81.434423 130.629966 L 81.434423 130.629966 Q 84.838141 140.195587 86.833424 149.233045 L 86.833424 149.233045 L 86.833424 149.233045 Q 88.946076 139.726109 92.349794 130.277857 L 92.349794 130.277857 L 92.349794 130.277857 Z " fill="rgb(9,9,162)"/></g><defs><filter id="NfW2Vs1dprf3RtwUmOPfxwwcnZCyVRLT" x="-200%" y="-200%" width="400%" height="400%"><feOffset xmlns="http://www.w3.org/2000/svg" in="SourceAlpha" result="offOut" dx="0" dy="0"/><feGaussianBlur xmlns="http://www.w3.org/2000/svg" in="offOut" result="blurOut" stdDeviation="2.5"/><feComponentTransfer xmlns="http://www.w3.org/2000/svg" in="blurOut" result="opacOut"><feFuncA xmlns="http://www.w3.org/2000/svg" type="table" tableValues="0 0.5"/></feComponentTransfer><feBlend xmlns="http://www.w3.org/2000/svg" in="SourceGraphic" in2="opacOut" mode="normal"/></filter></defs><g filter="url(#NfW2Vs1dprf3RtwUmOPfxwwcnZCyVRLT)"><path d=" M 96.569154 53.119192 L 96.569154 53.119192 L 96.569154 53.119192 Q 96.569154 66.601954 87.36808 73.859567 L 87.36808 73.859567 L 87.36808 73.859567 Q 78.167006 81.11718 61.040254 81.11718 L 61.040254 81.11718 L 50.59415 81.11718 L 50.59415 116.038748 L 40.269513 116.038748 L 40.269513 27.246865 L 63.287381 27.246865 L 63.287381 27.246865 Q 96.569154 27.246865 96.569154 53.119192 Z  M 50.59415 36.17464 L 50.59415 72.250138 L 59.886324 72.250138 L 59.886324 72.250138 Q 73.612019 72.250138 79.746068 67.816617 L 79.746068 67.816617 L 79.746068 67.816617 Q 85.880117 63.383097 85.880117 53.605057 L 85.880117 53.605057 L 85.880117 53.605057 Q 85.880117 44.798749 80.110467 40.486694 L 80.110467 40.486694 L 80.110467 40.486694 Q 74.340816 36.17464 62.133451 36.17464 L 62.133451 36.17464 L 50.59415 36.17464 L 50.59415 36.17464 Z " fill-rule="evenodd" fill="rgb(9,9,162)"/></g></g></svg>